<svg width="64" height="64" viewBox="0 0 64 64" fill="none" xmlns="http://www.w3.org/2000/svg">
  <rect width="64" height="64" rx="16" fill="url(#bg)"/>
  <circle cx="32" cy="34" r="16" fill="#F8FAFC"/>
  <path d="M23 34C23 28.4772 27.4772 24 33 24H41V34C41 39.5228 36.5228 44 31 44H23V34Z" fill="#0F172A"/>
  <circle cx="29" cy="34" r="2.5" fill="#F8FAFC"/>
  <circle cx="36" cy="34" r="2.5" fill="#F8FAFC"/>
  <path d="M26.5 40C27.8 41.2 29.5 42 31.5 42C33.5 42 35.2 41.2 36.5 40" stroke="#F8FAFC" stroke-width="1.8" stroke-linecap="round"/>
  <path d="M22 24L26 20L29 24H22Z" fill="#F8FAFC"/>
  <path d="M35 24L38 20L42 24H35Z" fill="#F8FAFC"/>
  <defs>
    <linearGradient id="bg" x1="8" y1="6" x2="56" y2="58" gradientUnits="userSpaceOnUse">
      <stop stop-color="#1E293B"/>
      <stop offset="1" stop-color="#0B1220"/>
    </linearGradient>
  </defs>
</svg>
